<svg width="520" height="360" viewBox="0 0 520 360" fill="none" xmlns="http://www.w3.org/2000/svg">
  <defs>
    <radialGradient id="bg1" cx="0" cy="0" r="1" gradientUnits="userSpaceOnUse" gradientTransform="translate(120 90) rotate(40) scale(420 320)">
      <stop stop-color="#FFFFFF"/>
      <stop offset="0.55" stop-color="#EAF2FF"/>
      <stop offset="1" stop-color="#BFD3F5"/>
    </radialGradient>
    <radialGradient id="bg2" cx="0" cy="0" r="1" gradientUnits="userSpaceOnUse" gradientTransform="translate(470 260) rotate(210) scale(420 320)">
      <stop stop-color="#E7F0FF" stop-opacity="0.9"/>
      <stop offset="1" stop-color="#9FB9EA" stop-opacity="0.35"/>
    </radialGradient>
    <linearGradient id="pill" x1="0" y1="0" x2="1" y2="1">
      <stop stop-color="#FFFFFF" stop-opacity="0.96"/>
      <stop offset="1" stop-color="#EAF2FF" stop-opacity="0.92"/>
    </linearGradient>
    <linearGradient id="card" x1="0" y1="0" x2="1" y2="1">
      <stop stop-color="#FFFFFF"/>
      <stop offset="1" stop-color="#F3F7FF"/>
    </linearGradient>
    <filter id="softShadow" x="-40" y="-40" width="600" height="480" filterUnits="userSpaceOnUse" color-interpolation-filters="sRGB">
      <feDropShadow dx="0" dy="14" stdDeviation="14" flood-color="#0F172A" flood-opacity="0.14"/>
    </filter>
    <filter id="miniShadow" x="-30" y="-30" width="260" height="220" filterUnits="userSpaceOnUse" color-interpolation-filters="sRGB">
      <feDropShadow dx="0" dy="10" stdDeviation="10" flood-color="#0F172A" flood-opacity="0.14"/>
    </filter>
  </defs>

  <rect width="520" height="360" rx="22" fill="url(#bg1)"/>
  <rect width="520" height="360" rx="22" fill="url(#bg2)"/>

  <!-- Subtle dot field -->
  <g opacity="0.22" fill="#7FA2D8">
    <circle cx="412" cy="310" r="1.3"/>
    <circle cx="430" cy="314" r="1.1"/>
    <circle cx="448" cy="320" r="1.0"/>
    <circle cx="466" cy="326" r="0.9"/>
    <circle cx="484" cy="334" r="0.9"/>
    <circle cx="402" cy="328" r="0.9"/>
    <circle cx="420" cy="336" r="0.9"/>
    <circle cx="438" cy="342" r="0.9"/>
    <circle cx="456" cy="346" r="0.9"/>
    <circle cx="474" cy="352" r="0.9"/>
  </g>

  <!-- Left timeline -->
  <g opacity="0.95">
    <path d="M64 66V262" stroke="#A7BFEA" stroke-width="6" stroke-linecap="round" opacity="0.65"/>
    <circle cx="64" cy="96" r="13" fill="#FFFFFF" stroke="#A7BFEA" stroke-width="4"/>
    <circle cx="64" cy="166" r="13" fill="#FFFFFF" stroke="#A7BFEA" stroke-width="4"/>
    <circle cx="64" cy="236" r="13" fill="#FFFFFF" stroke="#A7BFEA" stroke-width="4"/>
    <circle cx="64" cy="96" r="6" fill="#2E6BB8"/>
    <circle cx="64" cy="166" r="6" fill="#2E6BB8" opacity="0.65"/>
    <circle cx="64" cy="236" r="6" fill="#2E6BB8" opacity="0.65"/>

    <g filter="url(#miniShadow)">
      <rect x="88" y="78" width="152" height="38" rx="18" fill="url(#pill)" stroke="#D8E3FA"/>
      <rect x="88" y="148" width="175" height="38" rx="18" fill="url(#pill)" stroke="#D8E3FA"/>
      <rect x="88" y="218" width="110" height="38" rx="18" fill="url(#pill)" stroke="#D8E3FA"/>
    </g>
    <text x="104" y="103" font-family="ui-sans-serif, system-ui, -apple-system, Segoe UI, Roboto, Arial" font-size="20" font-weight="700" fill="#6B86B6">Abstract</text>
    <text x="104" y="173" font-family="ui-sans-serif, system-ui, -apple-system, Segoe UI, Roboto, Arial" font-size="20" font-weight="700" fill="#6B86B6">Introduction</text>
    <text x="104" y="243" font-family="ui-sans-serif, system-ui, -apple-system, Segoe UI, Roboto, Arial" font-size="20" font-weight="700" fill="#6B86B6">Flow</text>
  </g>

  <!-- Right panel -->
  <g filter="url(#softShadow)">
    <rect x="252" y="52" width="240" height="270" rx="22" fill="url(#card)" stroke="#D1DDF7"/>
    <text x="276" y="86" font-family="ui-sans-serif, system-ui, -apple-system, Segoe UI, Roboto, Arial" font-size="18" font-weight="800" fill="#6B86B6">Reviewer View</text>

    <!-- "Abstract" document card -->
    <rect x="274" y="102" width="196" height="126" rx="16" fill="#FFFFFF" stroke="#E2EBFF"/>
    <text x="292" y="126" font-family="ui-sans-serif, system-ui, -apple-system, Segoe UI, Roboto, Arial" font-size="16" font-weight="700" fill="#2A3342">Abstract</text>
    <circle cx="456" cy="118" r="2.2" fill="#95A3B8"/>
    <circle cx="464" cy="118" r="2.2" fill="#95A3B8"/>
    <circle cx="472" cy="118" r="2.2" fill="#95A3B8"/>

    <rect x="292" y="138" width="148" height="7" rx="3.5" fill="#DCE7FB"/>
    <rect x="292" y="150" width="132" height="7" rx="3.5" fill="#DCE7FB" opacity="0.9"/>
    <rect x="292" y="168" width="162" height="6" rx="3" fill="#DCE7FB" opacity="0.85"/>
    <rect x="292" y="180" width="172" height="6" rx="3" fill="#DCE7FB" opacity="0.85"/>
    <rect x="292" y="192" width="156" height="6" rx="3" fill="#DCE7FB" opacity="0.85"/>

    <!-- Comment callouts -->
    <rect x="424" y="160" width="66" height="46" rx="12" fill="#FFFFFF" stroke="#E2EBFF"/>
    <rect x="432" y="170" width="40" height="6" rx="3" fill="#C7D7F6"/>
    <rect x="432" y="182" width="48" height="6" rx="3" fill="#C7D7F6" opacity="0.9"/>
    <rect x="419" y="164" width="10" height="10" rx="3" fill="#F3D35A"/>

    <rect x="432" y="208" width="70" height="50" rx="12" fill="#FFFFFF" stroke="#E2EBFF"/>
    <rect x="440" y="220" width="42" height="6" rx="3" fill="#C7D7F6"/>
    <rect x="440" y="232" width="54" height="6" rx="3" fill="#C7D7F6" opacity="0.9"/>
    <rect x="427" y="214" width="10" height="10" rx="3" fill="#7DE3DD"/>

    <rect x="412" y="238" width="78" height="52" rx="12" fill="#FFFFFF" stroke="#E2EBFF" opacity="0.98"/>
    <rect x="420" y="250" width="46" height="6" rx="3" fill="#C7D7F6"/>
    <rect x="420" y="262" width="58" height="6" rx="3" fill="#C7D7F6" opacity="0.9"/>
    <rect x="407" y="244" width="10" height="10" rx="3" fill="#FF8AA6"/>

    <!-- Flow score area -->
    <rect x="274" y="232" width="196" height="74" rx="16" fill="#FFFFFF" stroke="#E2EBFF"/>
    <text x="292" y="258" font-family="ui-sans-serif, system-ui, -apple-system, Segoe UI, Roboto, Arial" font-size="15" font-weight="700" fill="#2A3342">Flow Score</text>
    <text x="417" y="258" font-family="ui-sans-serif, system-ui, -apple-system, Segoe UI, Roboto, Arial" font-size="22" font-weight="800" fill="#6B7B93">62</text>
    <path d="M447 252L458 258L447 264" stroke="#6B7B93" stroke-width="3" stroke-linecap="round" stroke-linejoin="round"/>
    <text x="466" y="258" font-family="ui-sans-serif, system-ui, -apple-system, Segoe UI, Roboto, Arial" font-size="22" font-weight="900" fill="#2E8B6E">88</text>
    <rect x="292" y="272" width="160" height="10" rx="5" fill="#DCE7FB"/>
    <rect x="292" y="272" width="128" height="10" rx="5" fill="#7DE3DD"/>

    <!-- Chips -->
    <g>
      <rect x="282" y="288" width="36" height="18" rx="9" fill="#D7F4F2" stroke="#BDEBE6"/>
      <rect x="322" y="288" width="50" height="18" rx="9" fill="#EAF2FF" stroke="#D8E3FA"/>
      <rect x="376" y="288" width="44" height="18" rx="9" fill="#EAF2FF" stroke="#D8E3FA"/>
      <rect x="424" y="288" width="46" height="18" rx="9" fill="#EAF2FF" stroke="#D8E3FA"/>
      <text x="292" y="301" font-family="ui-sans-serif, system-ui, -apple-system, Segoe UI, Roboto, Arial" font-size="11.5" font-weight="700" fill="#1F3A5F">Aims</text>
      <text x="334" y="301" font-family="ui-sans-serif, system-ui, -apple-system, Segoe UI, Roboto, Arial" font-size="11.5" font-weight="700" fill="#6B7B93">Methods</text>
      <text x="387" y="301" font-family="ui-sans-serif, system-ui, -apple-system, Segoe UI, Roboto, Arial" font-size="11.5" font-weight="700" fill="#6B7B93">Results</text>
      <text x="432" y="301" font-family="ui-sans-serif, system-ui, -apple-system, Segoe UI, Roboto, Arial" font-size="11.5" font-weight="700" fill="#6B7B93">Storyline</text>
    </g>
  </g>

  <!-- Decorative floating icons (left) -->
  <g opacity="0.38" stroke="#A8BFEA" stroke-width="2" fill="none">
    <rect x="22" y="34" width="40" height="34" rx="8" fill="#FFFFFF" opacity="0.5"/>
    <path d="M34 45H54M34 53H50M34 61H47" stroke="#A8BFEA"/>
    <rect x="20" y="272" width="44" height="34" rx="9" fill="#FFFFFF" opacity="0.5"/>
    <path d="M32 288H54M32 296H50" stroke="#A8BFEA"/>
    <path d="M36 280L28 288L36 296" stroke="#A8BFEA" stroke-linecap="round" stroke-linejoin="round" opacity="0.0"/>
  </g>
</svg>
